<svg xmlns="http://www.w3.org/2000/svg" width="208.524" height="37.157" viewBox="0 0 208.524 37.157">
  <g id="_1_Socials" data-name="1 Socials" transform="translate(0.418 0.419)">
    <path id="Path_5287" data-name="Path 5287" d="M9.62,0H26.7a9.62,9.62,0,0,1,9.62,9.62V26.7a9.62,9.62,0,0,1-9.62,9.62H9.62A9.62,9.62,0,0,1,0,26.7V9.62A9.62,9.62,0,0,1,9.62,0Z" transform="translate(42.842 0)" fill="#c13584" stroke="#fff" stroke-width="0.837"/>
    <path id="Path_3384" data-name="Path 3384" d="M20.814,3.6H10.5A6.8,6.8,0,0,0,3.709,10.4V20.706A6.8,6.8,0,0,0,10.5,27.5H20.811A6.8,6.8,0,0,0,27.6,20.706V10.393A6.8,6.8,0,0,0,20.811,3.6Zm5.043,17.281a4.928,4.928,0,0,1-4.922,4.922H10.382A4.928,4.928,0,0,1,5.46,20.885V10.335a4.928,4.928,0,0,1,4.922-4.922H20.935a4.928,4.928,0,0,1,4.922,4.922V20.888Z" transform="translate(45.345 2.408)" fill="#fff"/>
    <path id="Path_3385" data-name="Path 3385" d="M12.9,6.742a6.078,6.078,0,1,0,6.081,6.078A6.086,6.086,0,0,0,12.9,6.742Zm0,10.432a4.351,4.351,0,1,1,4.351-4.351A4.356,4.356,0,0,1,12.9,17.174Z" transform="translate(48.106 5.196)" fill="#fff"/>
    <path id="Path_3386" data-name="Path 3386" d="M14.078,5.834A1.224,1.224,0,1,0,15.3,7.058,1.225,1.225,0,0,0,14.078,5.834Z" transform="translate(53.464 4.39)" fill="#fff"/>
    <rect id="Rectangle_333" data-name="Rectangle 333" width="36.321" height="36.321" rx="9.62" transform="translate(85.683 0)" fill="#1da1f2" stroke="#fff" stroke-miterlimit="10" stroke-width="0.837"/>
    <path id="Path_3387" data-name="Path 3387" d="M26.9,7.5a9.176,9.176,0,0,1-2.659.687A4.6,4.6,0,0,0,26.3,5.661a9.262,9.262,0,0,1-2.946,1.077,4.614,4.614,0,0,0-8.023,3.038,4.5,4.5,0,0,0,.105,1.053A13.081,13.081,0,0,1,6.007,5.872,4.618,4.618,0,0,0,7.344,12.05a4.568,4.568,0,0,1-2.08-.608V11.5A4.615,4.615,0,0,0,8.9,16.075a4.623,4.623,0,0,1-1.216.145,4.69,4.69,0,0,1-.866-.095,4.618,4.618,0,0,0,4.262,3.264A9.272,9.272,0,0,1,5.32,21.281a9.4,9.4,0,0,1-1.1-.082,13.117,13.117,0,0,0,20.35-10.756c0-.2,0-.4-.005-.6A9.378,9.378,0,0,0,26.9,7.491h0Z" transform="translate(88.642 3.855)" fill="#fff"/>
    <rect id="Rectangle_334" data-name="Rectangle 334" width="36.321" height="36.321" rx="9.62" transform="translate(128.525 0)" fill="none" stroke="#fff" stroke-miterlimit="10" stroke-width="0.837"/>
    <path id="Path_3388" data-name="Path 3388" d="M5.113,11.367H9.222V24.586H5.113ZM7.169,4.8A2.382,2.382,0,1,1,4.787,7.182,2.383,2.383,0,0,1,7.169,4.8" transform="translate(131.985 3.469)" fill="#fff"/>
    <path id="Path_3389" data-name="Path 3389" d="M8.5,8.431h3.941v1.808H12.5A4.313,4.313,0,0,1,16.385,8.1c4.162,0,4.93,2.738,4.93,6.3V21.65H17.209V15.222c0-1.532-.026-3.506-2.135-3.506s-2.464,1.672-2.464,3.4V21.65H8.5V8.431Z" transform="translate(135.282 6.405)" fill="#fff"/>
    <rect id="Rectangle_335" data-name="Rectangle 335" width="36.321" height="36.321" rx="9.62" transform="translate(171.366 0)" fill="none" stroke="#fff" stroke-miterlimit="10" stroke-width="0.837"/>
    <path id="Path_3390" data-name="Path 3390" d="M4.313,23.924l.079.226C4.381,24.127,4.352,24.048,4.313,23.924Zm3.209-5.188a3.45,3.45,0,0,1,4.47-3.043V12.484a6.824,6.824,0,0,1,1.182.074v4.13A3.45,3.45,0,0,0,8.7,19.731a3.778,3.778,0,0,0,.669,2.3c-.14-.074-.276-.158-.421-.253A3.521,3.521,0,0,1,7.522,18.736ZM19.9,6.551a5.686,5.686,0,0,1-1.361-2.79H19.67a5.272,5.272,0,0,0,1.414,3.783l.024.024A6.214,6.214,0,0,1,19.9,6.548h0ZM25.34,9.46v4.046a14.227,14.227,0,0,1-2.509-.342,9.513,9.513,0,0,1-2.443-1s-.663-.434-.713-.466v8.358a8.439,8.439,0,0,1-.495,2.6,7.592,7.592,0,0,1-3.9,4.154,7.414,7.414,0,0,1-3.106.682A7.69,7.69,0,0,1,8,26.233a8.4,8.4,0,0,1-1.2-1l.011.011a7.637,7.637,0,0,0,4.183,1.25,7.466,7.466,0,0,0,3.106-.682,7.592,7.592,0,0,0,3.9-4.154,8.452,8.452,0,0,0,.495-2.6V10.707c.055.029.713.466.713.466a9.513,9.513,0,0,0,2.443,1,14.227,14.227,0,0,0,2.509.342V9.349a3.878,3.878,0,0,0,1.187.113Z" transform="translate(174.405 2.549)" fill="#fff"/>
    <path id="Path_3391" data-name="Path 3391" d="M24,9.34v3.169a14.227,14.227,0,0,1-2.509-.342,9.513,9.513,0,0,1-2.443-1s-.663-.434-.713-.466v8.358a8.439,8.439,0,0,1-.495,2.6,7.592,7.592,0,0,1-3.9,4.154,7.414,7.414,0,0,1-3.106.682,7.69,7.69,0,0,1-4.183-1.25l-.011-.011a8.363,8.363,0,0,1-.59-.669A8.186,8.186,0,0,1,4.934,22.53v-.005a8.158,8.158,0,0,1-.44-2.7A7.409,7.409,0,0,1,5.4,16.4a8.069,8.069,0,0,1,1.756-2.145A7.381,7.381,0,0,1,9.243,13.02a6.959,6.959,0,0,1,2.59-.545v3.209A3.441,3.441,0,0,0,8.8,21.767a4.815,4.815,0,0,0,.421.253A3.479,3.479,0,0,0,13.447,23.1a3.253,3.253,0,0,0,1.785-1.964,4.763,4.763,0,0,0,.184-1.622V3.762h2.967a5.649,5.649,0,0,0,1.361,2.79,6.543,6.543,0,0,0,1.206,1.019,6.239,6.239,0,0,0,1.656,1.266,6.365,6.365,0,0,0,1.39.505h0Z" transform="translate(174.563 2.551)" fill="#fff"/>
    <rect id="Rectangle_331" data-name="Rectangle 331" width="36.321" height="36.321" rx="9.62" transform="translate(0 0)" fill="#3b5998" stroke="#fff" stroke-miterlimit="10" stroke-width="0.837"/>
    <path id="Path_3383" data-name="Path 3383" d="M18.232,17.23l.558-4.317H14.513V10.157c0-1.25.35-2.1,2.14-2.1h2.285V4.19a30.41,30.41,0,0,0-3.33-.171c-3.3,0-5.554,2.011-5.554,5.709v3.185H6.324V17.23h3.73v9.642H14.51V17.23H18.23Z" transform="translate(4.824 2.778)" fill="#fff"/>
  </g>
</svg>
