<svg xmlns="http://www.w3.org/2000/svg" xmlns:xlink="http://www.w3.org/1999/xlink" width="263" height="412" viewBox="0 0 263 412">
  <defs>
    <filter id="_5_white" x="0" y="0" width="263" height="412" filterUnits="userSpaceOnUse">
      <feOffset dx="6" dy="6" input="SourceAlpha"/>
      <feGaussianBlur stdDeviation="3" result="blur"/>
      <feFlood flood-opacity="0.796"/>
      <feComposite operator="in" in2="blur"/>
    </filter>
    <filter id="_5_white-2" x="0" y="0" width="263" height="412" filterUnits="userSpaceOnUse">
      <feOffset dy="3" input="SourceAlpha"/>
      <feGaussianBlur stdDeviation="3" result="blur-2"/>
      <feFlood flood-color="#fff" flood-opacity="0.851" result="color"/>
      <feComposite operator="out" in="SourceGraphic" in2="blur-2"/>
      <feComposite operator="in" in="color"/>
      <feComposite operator="in" in2="SourceGraphic"/>
    </filter>
  </defs>
  <g data-type="innerShadowGroup">
    <g transform="matrix(1, 0, 0, 1, 0, 0)" filter="url(#_5_white)">
      <g id="_5_white-3" data-name="5 white" transform="translate(3 3)" fill="#fff" stroke="#707070" stroke-width="1" opacity="0.418">
        <path d="M0,0H220a25,25,0,0,1,25,25V369a25,25,0,0,1-25,25H25A25,25,0,0,1,0,369V0A0,0,0,0,1,0,0Z" stroke="none" />
        <path d="M.5.5H220A24.5,24.5,0,0,1,244.5,25V369A24.5,24.5,0,0,1,220,393.5H25A24.5,24.5,0,0,1,.5,369V.5A0,0,0,0,1,.5.5Z" fill="none"/>
      </g>
    </g>
    <path  id="_5_white-4" data-name="5 white" d="M0,0H220a25,25,0,0,1,25,25V369a25,25,0,0,1-25,25H25A25,25,0,0,1,0,369V0A0,0,0,0,1,0,0Z" transform="translate(3 3)" fill="#fff" opacity="0.8"/>
    <g transform="matrix(1, 0, 0, 1, 0, 0)" filter="url(#_5_white-2)">
      <path  id="_5_white-5" data-name="5 white" d="M0,0H220a25,25,0,0,1,25,25V369a25,25,0,0,1-25,25H25A25,25,0,0,1,0,369V0A0,0,0,0,1,0,0Z" transform="translate(3 3)" fill="#fff" opacity="0.7"/>
    </g>
    <g id="_5_white-6" data-name="5 white" transform="translate(3 3)" fill="none" stroke="#707070" stroke-width="1" opacity="0.418">
      <path d="M0,0H220a25,25,0,0,1,25,25V369a25,25,0,0,1-25,25H25A25,25,0,0,1,0,369V0A0,0,0,0,1,0,0Z" stroke="none"/>
      <path d="M.5.5H220A24.5,24.5,0,0,1,244.5,25V369A24.5,24.5,0,0,1,220,393.5H25A24.5,24.5,0,0,1,.5,369V.5A0,0,0,0,1,.5.5Z" fill="none"/>
    </g>
  </g>
</svg>
